<?xml version="1.0" encoding="UTF-8"?>
<svg id="Layer_1" data-name="Layer 1" xmlns="http://www.w3.org/2000/svg" xmlns:xlink="http://www.w3.org/1999/xlink" viewBox="0 0 815.58 545.33">
  <defs>
    <style>
      .cls-1 {
        fill: url(#linear-gradient);
      }
    </style>
    <linearGradient id="linear-gradient" x1="0" y1="272.66" x2="815.58" y2="272.66" gradientUnits="userSpaceOnUse">
      <stop offset="0" stop-color="#58a8dd"/>
      <stop offset="1" stop-color="#1a3d63"/>
    </linearGradient>
  </defs>
  <path class="cls-1" d="M335.66,493.81c-14.97,9.07-26.26,16.88-38.37,23.1-75.84,38.94-159.48,28.35-224.72-26.34C-28.23,406.07-24.01,247.17,85.16,167.76c80.37-58.46,184.61-52.38,260.02,17.98,43.56,40.64,72.85,90.26,96.05,144.68,20.54,48.2,48.83,91.5,93.46,121.89,68.18,46.43,151.6,21.28,191.71-38.47,30.4-45.28,34.42-94.4,9.2-143.09-27.23-52.57-72.39-79.42-131.64-77.75-45.38,1.28-80.35,25.72-108.93,59.3-13.29,15.62-24.75,32.8-37.69,50.15-10.67-19.29-21.41-38.12-31.38-57.36-1.42-2.75-.33-8.36,1.69-11.09,36.65-49.49,80.76-89.1,143.33-101.6,58.78-11.74,112.69,.83,161.16,36.26,4.58,3.35,9.06,6.82,13.61,10.2,.29,.22,.78,.18,2.97,.62,.3-4.31,.83-8.43,.84-12.54,.06-49.9,0-99.79,.05-149.69,.02-16.04,1.12-17.05,17.46-17.14,10.14-.06,20.29-.27,30.42,.16,16.29,.7,18.06,2.63,18.06,18.71,.02,107.5,.04,215-.11,322.49-.01,8.47-.8,17.02-2.1,25.39-13.45,86.94-83.45,157.26-170.32,171.09-67.95,10.82-125.65-11.1-175.09-56.75-41.23-38.07-69.08-85.22-91.01-136.57-22.59-52.89-52.86-100.53-102.78-132.49-59.03-37.8-145.54-18.15-184.33,40.38-31.3,47.22-36.03,96.15-10.66,146.21,40.18,79.3,143.87,106.64,215.16,42.86,18.24-16.32,33.3-36.22,49.58-54.69,4.98-5.64,9.17-11.97,15.07-19.77,6.67,12.75,11.03,24.23,18,33.8,18.51,25.45,25.61,53.15,22.36,84.41-1.63,15.65-.52,31.62-.23,47.43,.16,8.59-2.95,12.78-12.02,12.53-12.97-.36-25.97-.41-38.93,.01-9.71,.32-12.88-4.2-12.57-13.29,.4-11.62,.1-23.26,.1-38.21Z"/>
</svg>